# Blender v3.1.2 OBJ File: ''
# www.blender.org
mtllib test1.mtl
o Cube
v 1.000000 1.000000 -0.977613
v 1.000000 -1.000000 -1.000000
v 1.000000 1.000000 1.000000
v 1.000000 -1.000000 1.000000
v -1.000000 1.000000 -1.000000
v -1.000000 -1.000000 -1.000000
v -1.000000 1.000000 1.000000
v -1.000000 -1.000000 1.000000
v 0.590700 1.000000 0.590700
v -0.590700 1.000000 0.590700
v 0.429053 1.161647 -0.590700
v -0.429053 1.161647 -0.590700
v 0.590700 2.409303 0.590700
v -0.836699 2.409303 0.590700
v 0.429053 1.543324 -0.590700
v -0.429053 1.543324 -0.590700
v -0.590700 1.000000 -0.590700
v 0.590700 1.000000 -0.590700
v -1.514452 2.409303 -0.590700
v 0.590700 2.409303 -0.590700
v -0.590700 1.000000 -0.590700
v 0.590700 1.000000 -0.590700
v -0.590700 1.704972 -0.590700
v 0.590700 1.704972 -0.590700
v -0.429053 1.161647 -2.364442
v 0.429053 1.161647 -2.364442
v 0.199982 1.543324 -2.364442
v 0.429053 1.543324 -2.364442
v -0.429053 2.801728 -1.472496
v 0.429053 2.801728 -0.806633
v -0.625985 3.961699 -2.148508
v -0.158577 3.961699 -2.148508
v 1.000000 1.312358 1.000000
v -1.000000 1.312358 1.000000
v 0.590700 1.312358 0.590700
v -0.590700 1.312358 0.590700
v -1.826471 2.583861 1.152553
v -1.826471 2.583861 -0.028847
vt 0.625000 0.500000
vt 0.625000 0.250000
vt 0.625000 0.250000
vt 0.625000 0.500000
vt 0.375000 0.750000
vt 0.625000 0.750000
vt 0.625000 1.000000
vt 0.375000 1.000000
vt 0.375000 0.000000
vt 0.625000 0.000000
vt 0.375000 0.250000
vt 0.125000 0.500000
vt 0.375000 0.500000
vt 0.125000 0.750000
vt 0.625000 0.000000
vt 0.625000 0.000000
vt 0.625000 0.250000
vt 0.625000 0.750000
vt 0.625000 1.000000
vt 0.625000 1.000000
vt 0.625000 0.750000
vt 0.625000 0.500000
vt 0.875000 0.500000
vt 0.875000 0.750000
vt 0.625000 0.750000
vt 0.625000 1.000000
vt 0.625000 0.284207
vt 0.625000 0.284207
vt 0.625000 0.284207
vt 0.625000 0.284207
vt 0.625000 0.250000
vt 0.625000 0.500000
vt 0.625000 0.500000
vt 0.625000 0.250000
vt 0.000000 0.000000
vt 0.000000 0.000000
vt 0.000000 0.000000
vt 0.000000 0.000000
vt 0.000000 0.000000
vt 0.000000 0.000000
vt 0.000000 0.000000
vt 0.000000 0.000000
vt 0.625000 0.465793
vt 0.625000 0.465793
vt 0.625000 0.465793
vt 0.625000 0.465793
vt 0.625000 0.284207
vt 0.625000 0.465793
vt 0.625000 0.284207
vt 0.625000 0.465793
vt 0.625000 1.000000
vt 0.625000 0.750000
vt 0.625000 0.000000
vt 0.625000 0.000000
vt 0.625000 0.250000
vt 0.625000 0.000000
vn 0.0000 1.0000 0.0000
vn 0.0000 0.0000 1.0000
vn -1.0000 0.0000 0.0000
vn 0.0000 -1.0000 0.0000
vn 1.0000 0.0000 0.0000
vn 0.0056 0.0056 -1.0000
vn -0.8928 -0.3705 0.2561
vn 0.0000 0.0000 -1.0000
vn -0.7646 0.6301 -0.1356
vn 0.0000 0.0889 -0.9960
vn -0.3806 0.5303 0.7576
vn -0.3351 0.3767 0.8636
vn -0.9228 -0.2590 -0.2854
vn 0.9795 0.1566 -0.1265
vn -0.7071 0.0000 -0.7071
vn 0.7071 0.0000 -0.7071
vn 0.2098 0.9759 -0.0602
usemtl Material
s off
f 1/1/1 5/2/1 17/3/1 18/4/1
f 4/5/2 3/6/2 7/7/2 8/8/2
f 8/9/3 7/10/3 5/2/3 6/11/3
f 6/12/4 2/13/4 4/5/4 8/14/4
f 2/13/5 1/1/5 3/6/5 4/5/5
f 6/11/6 5/2/6 1/1/6 2/13/6
f 17/3/7 10/15/7 14/16/7 19/17/7
f 9/18/8 10/19/8 36/20/8 35/21/8
f 5/2/1 7/10/1 10/15/1 17/3/1
f 3/6/1 1/1/1 18/4/1 9/18/1
f 20/22/1 19/23/1 14/24/1 13/25/1
f 10/19/2 9/18/2 13/25/2 14/26/2
f 12/27/9 16/28/9 27/29/9 25/30/9
f 9/18/5 18/4/5 20/22/5 13/25/5
f 21/31/2 22/32/2 18/4/2 17/3/2
f 24/33/8 23/34/8 19/17/8 20/22/8
f 23/35/8 21/36/8 17/37/8 19/38/8
f 22/39/3 24/40/3 20/41/3 18/42/3
f 12/27/8 11/43/8 22/32/8 21/31/8
f 15/44/8 16/28/8 23/34/8 24/33/8
f 16/28/8 12/27/8 21/31/8 23/34/8
f 11/43/8 15/44/8 24/33/8 22/32/8
f 26/45/8 25/30/8 27/29/8 28/46/8
f 11/43/4 12/27/4 25/30/4 26/45/4
f 15/44/5 11/43/5 26/45/5 28/46/5
f 28/46/10 27/29/10 31/47/10 32/48/10
f 29/49/11 30/50/11 32/48/11 31/47/11
f 16/28/12 15/44/12 30/50/12 29/49/12
f 27/29/13 16/28/13 29/49/13 31/47/13
f 15/44/14 28/46/14 32/48/14 30/50/14
f 34/51/1 33/52/1 35/21/1 36/20/1
f 10/15/15 7/10/15 34/53/15 36/54/15
f 7/7/2 3/6/2 33/52/2 34/51/2
f 3/6/16 9/18/16 35/21/16 33/52/16
f 14/16/17 19/17/17 38/55/17 37/56/17
